<svg xmlns="http://www.w3.org/2000/svg" width="4169" height="2953" viewBox="0 0 4169 2953">
  <defs>
    <style>
      .cls-1, .cls-3, .cls-4, .cls-5 {
        fill: #fff;
      }

      .cls-1, .cls-2 {
        fill-rule: evenodd;
      }

      .cls-3 {
        font-size: 51.648px;
        text-transform: uppercase;
      }

      .cls-3, .cls-5 {
        text-anchor: middle;
        font-family: Montserrat;
      }

      .cls-5 {
        font-size: 63.423px;
        font-weight: 600;
      }
    </style>
  </defs>
  <path id="Rounded_Rectangle_1" data-name="Rounded Rectangle 1" class="cls-1" d="M204.844,1145.17L754.1,1266c3.854,0.85,6.979,4.37,6.979,7.86v601.15c0,3.5-3.125,5.65-6.979,4.8L204.844,1758.98c-3.854-.85-6.979-4.37-6.979-7.87V1149.96C197.865,1146.47,200.99,1144.32,204.844,1145.17Z"/>
  <path class="cls-2" d="M117.912,1726.71L801,1241.86l40.028,56.4L157.94,1783.1Z"/>
  <text id="LuckyBest" class="cls-3" transform="matrix(7.308, 0, 0, 7.308, 2129.188, 1686.768)"><tspan x="0">LuckyBest</tspan></text>
  <rect class="cls-4" x="3403.53" y="1552.66" width="89.44" height="21.53"/>
  <text id="Fx" class="cls-5" transform="matrix(7.189, 0, 0, 7.189, 3802.411, 1689.397)"><tspan x="0">Fx</tspan></text>
</svg>
